Love for All and Sharing is the first step to solving all the problems of humanity.

Websites I want to share.

    
http://www.shareintl.org/

    
http://www.lightmiddleway.com


Thank you very much

No credit for me...credit to EVERYONE for sharing
 
http://thepiratebay.org/user/raymondhome/

PLOT
A bounty hunter learns that his next target is his ex-wife, a reporter working on a murder cover-up. Soon after their reunion, the always-at-odds duo find themselves on a run-for-their-lives adventure.

Runtime.......:1h 46mn
Video 
Format                           : MPEG-4 Visual 
Format profile                   : Streaming Video@L1 
Format settings, BVOP            : Yes 
Format settings, QPel            : No 
Format settings, GMC             : No warppoints 
Format settings, Matrix          : Default 
Muxing mode                      : Packed bitstream 
Codec ID                         : XVID 
Codec ID/Hint                    : XviD 
Duration                         : 1h 46mn 
Bit rate                         : 2 487 Kbps 
Width                            : 720 pixels 
Height                           : 336 pixels 
Display aspect ratio             : 2.2 
Frame rate                       : 25.000 fps 
Resolution                       : 24 bits 
Colorimetry                      : 4:2:0 
Scan type                        : Progressive 
Bits/(Pixel*Frame)               : 0.411 
Stream size                      : 1.85 GiB (95%) 
Writing library                  : XviD 50 
Audio 
Format                           : MPEG Audio 
Format version                   : Version 1 
Format profile                   : Layer 3 
Codec ID                         : 55 
Codec ID/Hint                    : MP3 
Duration                         : 1h 46mn 
Bit rate mode                    : Constant 
Bit rate                         : 128 Kbps 
Channel(s)                       : 2 channels 
Sampling rate                    : 44.1 KHz 
Resolution                       : 16 bits 
Video delay                      : 95ms 
Stream size                      : 97.3 MiB (5%) 
Alignment                        : Split accross interleaves 
Interleave, duration             : 40 ms (1.00 video frame) 
Interleave, preload duration     : 500 ms 

IMAGiNE NOTES
 
Well what can we say, we wanted to do another version of this one after we received the source files for this one. Thanks ELEKRI4KA 
We have tweaked the video a little different this time as we cut it up into multiple parts to get the cropping right. We are sure you will like the out come.

credit IMAGiNE & to all the people who made it possible for me to share this with everyone

UPLOAD DEDICATED TO redchaos2354, Motley Crue, jdpennington, BADASS, W1ck3d1nt3ntz, ceo54, DaRkReAlM, ghostman, karakurachow, megaplay, Emery1337x, SaM, geordieboy1979, timamirrockdude, Noir, Shedevil, bone111, JorgeMontana, BlueLady, xxxUniversalAbsurdityxxx, mc68, TheFalcon007, pardeep333, X & many, many more & to all the awesome people who are sharing (ALL THE UPLOADERS, THE RIPPERS, THE SCENE GROUPS, ETC, THE WHOLE P2P COMMUNITY)***wish i could list everyone***Thank you very much everyone & i mean EVERYONE!!!

*****help what we can with haiti or any other in need...the world is ONE big family*****